<mxfile host="app.diagrams.net" agent="Mozilla/5.0 (Windows NT 10.0; Win64; x64) AppleWebKit/537.36 (KHTML, like Gecko) Chrome/140.0.0.0 Safari/537.36" version="28.2.5">
  <diagram name="หน้า-1" id="QAqBCOUPjLgGoCMuNLaQ">
    <mxGraphModel dx="2775" dy="1238" grid="1" gridSize="10" guides="1" tooltips="1" connect="1" arrows="1" fold="1" page="1" pageScale="1" pageWidth="827" pageHeight="1169" math="0" shadow="0">
      <root>
        <mxCell id="0" />
        <mxCell id="1" parent="0" />
        <mxCell id="Ty_dKQS8moNGewAn382e-213" value="" style="edgeStyle=orthogonalEdgeStyle;rounded=0;orthogonalLoop=1;jettySize=auto;html=1;" edge="1" parent="1" source="2" target="Ty_dKQS8moNGewAn382e-212">
          <mxGeometry relative="1" as="geometry" />
        </mxCell>
        <mxCell id="2" value="Start" style="ellipse" vertex="1" parent="1">
          <mxGeometry x="150" width="100" height="40" as="geometry" />
        </mxCell>
        <mxCell id="Ty_dKQS8moNGewAn382e-217" value="" style="edgeStyle=orthogonalEdgeStyle;rounded=0;orthogonalLoop=1;jettySize=auto;html=1;" edge="1" parent="1" source="3" target="5">
          <mxGeometry relative="1" as="geometry" />
        </mxCell>
        <mxCell id="3" value="รับค่า N" style="parallelogram" vertex="1" parent="1">
          <mxGeometry x="160" y="320" width="80" height="40" as="geometry" />
        </mxCell>
        <mxCell id="Ty_dKQS8moNGewAn382e-218" value="" style="edgeStyle=orthogonalEdgeStyle;rounded=0;orthogonalLoop=1;jettySize=auto;html=1;" edge="1" parent="1" source="4" target="3">
          <mxGeometry relative="1" as="geometry" />
        </mxCell>
        <mxCell id="4" value="สร้างตัวแปร arr[n]" style="rectangle" vertex="1" parent="1">
          <mxGeometry x="120" y="240" width="160" height="40" as="geometry" />
        </mxCell>
        <mxCell id="Ty_dKQS8moNGewAn382e-223" value="" style="edgeStyle=orthogonalEdgeStyle;rounded=0;orthogonalLoop=1;jettySize=auto;html=1;" edge="1" parent="1" source="5" target="Ty_dKQS8moNGewAn382e-222">
          <mxGeometry relative="1" as="geometry" />
        </mxCell>
        <mxCell id="5" value="i = 0" style="rectangle" vertex="1" parent="1">
          <mxGeometry x="160" y="400" width="80" height="40" as="geometry" />
        </mxCell>
        <mxCell id="Ty_dKQS8moNGewAn382e-216" value="" style="edgeStyle=orthogonalEdgeStyle;rounded=0;orthogonalLoop=1;jettySize=auto;html=1;" edge="1" parent="1" source="6" target="Ty_dKQS8moNGewAn382e-215">
          <mxGeometry relative="1" as="geometry" />
        </mxCell>
        <mxCell id="Ty_dKQS8moNGewAn382e-225" style="edgeStyle=orthogonalEdgeStyle;rounded=0;orthogonalLoop=1;jettySize=auto;html=1;entryX=0.5;entryY=0;entryDx=0;entryDy=0;" edge="1" parent="1" source="6" target="Ty_dKQS8moNGewAn382e-226">
          <mxGeometry relative="1" as="geometry">
            <mxPoint x="320" y="960" as="targetPoint" />
            <Array as="points">
              <mxPoint x="360" y="560" />
              <mxPoint x="360" y="920" />
              <mxPoint x="200" y="920" />
            </Array>
          </mxGeometry>
        </mxCell>
        <mxCell id="6" value="i &lt; N ?" style="rhombus" vertex="1" parent="1">
          <mxGeometry x="150" y="520" width="100" height="80" as="geometry" />
        </mxCell>
        <mxCell id="Ty_dKQS8moNGewAn382e-220" value="" style="edgeStyle=orthogonalEdgeStyle;rounded=0;orthogonalLoop=1;jettySize=auto;html=1;" edge="1" parent="1" source="7" target="8">
          <mxGeometry relative="1" as="geometry" />
        </mxCell>
        <mxCell id="7" value="รับค่าตัวเลขเก็บลง arr[i]" style="parallelogram" vertex="1" parent="1">
          <mxGeometry x="110" y="720" width="180" height="40" as="geometry" />
        </mxCell>
        <mxCell id="Ty_dKQS8moNGewAn382e-221" style="edgeStyle=orthogonalEdgeStyle;rounded=0;orthogonalLoop=1;jettySize=auto;html=1;entryX=0;entryY=0.5;entryDx=0;entryDy=0;" edge="1" parent="1" source="8" target="Ty_dKQS8moNGewAn382e-222">
          <mxGeometry relative="1" as="geometry">
            <mxPoint x="40" y="170" as="targetPoint" />
            <Array as="points">
              <mxPoint x="200" y="880" />
              <mxPoint x="40" y="880" />
              <mxPoint x="40" y="480" />
            </Array>
          </mxGeometry>
        </mxCell>
        <mxCell id="8" value="i + 1" style="rectangle" vertex="1" parent="1">
          <mxGeometry x="170" y="800" width="60" height="40" as="geometry" />
        </mxCell>
        <mxCell id="Ty_dKQS8moNGewAn382e-233" style="edgeStyle=orthogonalEdgeStyle;rounded=0;orthogonalLoop=1;jettySize=auto;html=1;entryX=0.5;entryY=0;entryDx=0;entryDy=0;" edge="1" parent="1" source="10" target="Ty_dKQS8moNGewAn382e-230">
          <mxGeometry relative="1" as="geometry" />
        </mxCell>
        <mxCell id="10" value="i = 0" style="rectangle" vertex="1" parent="1">
          <mxGeometry x="160" y="1040" width="80" height="40" as="geometry" />
        </mxCell>
        <mxCell id="Ty_dKQS8moNGewAn382e-228" value="" style="edgeStyle=orthogonalEdgeStyle;rounded=0;orthogonalLoop=1;jettySize=auto;html=1;" edge="1" parent="1" source="11">
          <mxGeometry relative="1" as="geometry">
            <mxPoint x="200" y="1280" as="targetPoint" />
          </mxGeometry>
        </mxCell>
        <mxCell id="Ty_dKQS8moNGewAn382e-239" style="edgeStyle=orthogonalEdgeStyle;rounded=0;orthogonalLoop=1;jettySize=auto;html=1;entryX=0.5;entryY=0;entryDx=0;entryDy=0;" edge="1" parent="1" source="11" target="Ty_dKQS8moNGewAn382e-240">
          <mxGeometry relative="1" as="geometry">
            <mxPoint x="320" y="1440" as="targetPoint" />
            <Array as="points">
              <mxPoint x="360" y="1200" />
              <mxPoint x="360" y="1480" />
              <mxPoint x="200" y="1480" />
            </Array>
          </mxGeometry>
        </mxCell>
        <mxCell id="11" value="i &lt; N ?" style="rhombus" vertex="1" parent="1">
          <mxGeometry x="150" y="1160" width="100" height="80" as="geometry" />
        </mxCell>
        <mxCell id="Ty_dKQS8moNGewAn382e-248" value="" style="edgeStyle=orthogonalEdgeStyle;rounded=0;orthogonalLoop=1;jettySize=auto;html=1;" edge="1" parent="1" source="13" target="Ty_dKQS8moNGewAn382e-246">
          <mxGeometry relative="1" as="geometry" />
        </mxCell>
        <mxCell id="Ty_dKQS8moNGewAn382e-258" value="" style="edgeStyle=orthogonalEdgeStyle;rounded=0;orthogonalLoop=1;jettySize=auto;html=1;" edge="1" parent="1" source="13" target="Ty_dKQS8moNGewAn382e-245">
          <mxGeometry relative="1" as="geometry" />
        </mxCell>
        <mxCell id="13" value="ผลลัพธ์เป็นจริง?" style="rhombus" vertex="1" parent="1">
          <mxGeometry x="140" y="1920" width="120" height="80" as="geometry" />
        </mxCell>
        <mxCell id="Ty_dKQS8moNGewAn382e-229" value="" style="edgeStyle=orthogonalEdgeStyle;rounded=0;orthogonalLoop=1;jettySize=auto;html=1;" edge="1" parent="1" target="16">
          <mxGeometry relative="1" as="geometry">
            <mxPoint x="200" y="1320" as="sourcePoint" />
          </mxGeometry>
        </mxCell>
        <mxCell id="Ty_dKQS8moNGewAn382e-235" style="edgeStyle=orthogonalEdgeStyle;rounded=0;orthogonalLoop=1;jettySize=auto;html=1;entryX=0;entryY=0.5;entryDx=0;entryDy=0;" edge="1" parent="1" source="16" target="Ty_dKQS8moNGewAn382e-230">
          <mxGeometry relative="1" as="geometry">
            <Array as="points">
              <mxPoint x="200" y="1440" />
              <mxPoint x="80" y="1440" />
              <mxPoint x="80" y="1115" />
            </Array>
          </mxGeometry>
        </mxCell>
        <mxCell id="16" value="i + 1" style="rectangle" vertex="1" parent="1">
          <mxGeometry x="170" y="1360" width="60" height="40" as="geometry" />
        </mxCell>
        <mxCell id="17" value="Stop" style="ellipse" vertex="1" parent="1">
          <mxGeometry x="150" y="2320" width="100" height="40" as="geometry" />
        </mxCell>
        <mxCell id="20" value="Start" style="ellipse" vertex="1" parent="1">
          <mxGeometry x="660" width="120" height="40" as="geometry" />
        </mxCell>
        <mxCell id="Ty_dKQS8moNGewAn382e-273" value="" style="edgeStyle=orthogonalEdgeStyle;rounded=0;orthogonalLoop=1;jettySize=auto;html=1;" edge="1" parent="1" source="21" target="Ty_dKQS8moNGewAn382e-272">
          <mxGeometry relative="1" as="geometry" />
        </mxCell>
        <mxCell id="21" value="num &lt; 2 ?" style="rhombus" vertex="1" parent="1">
          <mxGeometry x="670" y="80" width="100" height="80" as="geometry" />
        </mxCell>
        <mxCell id="Ty_dKQS8moNGewAn382e-267" style="edgeStyle=orthogonalEdgeStyle;rounded=0;orthogonalLoop=1;jettySize=auto;html=1;entryX=0.5;entryY=0;entryDx=0;entryDy=0;" edge="1" parent="1" source="23" target="Ty_dKQS8moNGewAn382e-266">
          <mxGeometry relative="1" as="geometry" />
        </mxCell>
        <mxCell id="23" value="i = 2" style="rectangle" vertex="1" parent="1">
          <mxGeometry x="680" y="200" width="80" height="40" as="geometry" />
        </mxCell>
        <mxCell id="Ty_dKQS8moNGewAn382e-269" value="" style="edgeStyle=orthogonalEdgeStyle;rounded=0;orthogonalLoop=1;jettySize=auto;html=1;" edge="1" parent="1" source="24" target="25">
          <mxGeometry relative="1" as="geometry" />
        </mxCell>
        <mxCell id="Ty_dKQS8moNGewAn382e-271" value="" style="edgeStyle=orthogonalEdgeStyle;rounded=0;orthogonalLoop=1;jettySize=auto;html=1;" edge="1" parent="1" source="24" target="Ty_dKQS8moNGewAn382e-270">
          <mxGeometry relative="1" as="geometry" />
        </mxCell>
        <mxCell id="24" value="i &lt;= sqrt(num) ?" style="rhombus" vertex="1" parent="1">
          <mxGeometry x="650" y="320" width="140" height="80" as="geometry" />
        </mxCell>
        <mxCell id="Ty_dKQS8moNGewAn382e-264" value="" style="edgeStyle=orthogonalEdgeStyle;rounded=0;orthogonalLoop=1;jettySize=auto;html=1;" edge="1" parent="1" source="25" target="26">
          <mxGeometry relative="1" as="geometry" />
        </mxCell>
        <mxCell id="Ty_dKQS8moNGewAn382e-296" style="edgeStyle=orthogonalEdgeStyle;rounded=0;orthogonalLoop=1;jettySize=auto;html=1;entryX=1;entryY=0.5;entryDx=0;entryDy=0;" edge="1" parent="1" source="25" target="Ty_dKQS8moNGewAn382e-291">
          <mxGeometry relative="1" as="geometry">
            <Array as="points">
              <mxPoint x="840" y="480" />
              <mxPoint x="840" y="635" />
            </Array>
          </mxGeometry>
        </mxCell>
        <mxCell id="25" value="num % i == 0 ?" style="rhombus" vertex="1" parent="1">
          <mxGeometry x="650" y="440" width="140" height="80" as="geometry" />
        </mxCell>
        <mxCell id="Ty_dKQS8moNGewAn382e-293" style="edgeStyle=orthogonalEdgeStyle;rounded=0;orthogonalLoop=1;jettySize=auto;html=1;entryX=0.5;entryY=0;entryDx=0;entryDy=0;" edge="1" parent="1" source="26" target="Ty_dKQS8moNGewAn382e-291">
          <mxGeometry relative="1" as="geometry" />
        </mxCell>
        <mxCell id="26" value="return 0" style="parallelogram" vertex="1" parent="1">
          <mxGeometry x="670" y="565" width="100" height="40" as="geometry" />
        </mxCell>
        <mxCell id="Ty_dKQS8moNGewAn382e-274" style="edgeStyle=orthogonalEdgeStyle;rounded=0;orthogonalLoop=1;jettySize=auto;html=1;entryX=0;entryY=0.5;entryDx=0;entryDy=0;" edge="1" parent="1" source="27" target="Ty_dKQS8moNGewAn382e-266">
          <mxGeometry relative="1" as="geometry">
            <Array as="points">
              <mxPoint x="720" y="760" />
              <mxPoint x="600" y="760" />
              <mxPoint x="600" y="275" />
            </Array>
          </mxGeometry>
        </mxCell>
        <mxCell id="27" value="i + 1" style="rectangle" vertex="1" parent="1">
          <mxGeometry x="690" y="680" width="60" height="40" as="geometry" />
        </mxCell>
        <mxCell id="29" value="Stop" style="ellipse" vertex="1" parent="1">
          <mxGeometry x="660" y="840" width="120" height="40" as="geometry" />
        </mxCell>
        <mxCell id="200" edge="1" parent="1" source="20" target="21">
          <mxGeometry relative="1" as="geometry" />
        </mxCell>
        <mxCell id="203" edge="1" parent="1" source="21" target="23">
          <mxGeometry relative="1" as="geometry">
            <mxLabel position="0.5" value="False" as="label" />
          </mxGeometry>
        </mxCell>
        <mxCell id="Ty_dKQS8moNGewAn382e-279" value="" style="edgeStyle=orthogonalEdgeStyle;rounded=0;orthogonalLoop=1;jettySize=auto;html=1;" edge="1" parent="1" source="Ty_dKQS8moNGewAn382e-211" target="4">
          <mxGeometry relative="1" as="geometry" />
        </mxCell>
        <mxCell id="Ty_dKQS8moNGewAn382e-211" value="แสดง Enter N&amp;nbsp;" style="shape=parallelogram;perimeter=parallelogramPerimeter;whiteSpace=wrap;html=1;fixedSize=1;" vertex="1" parent="1">
          <mxGeometry x="120" y="160" width="160" height="40" as="geometry" />
        </mxCell>
        <mxCell id="Ty_dKQS8moNGewAn382e-278" value="" style="edgeStyle=orthogonalEdgeStyle;rounded=0;orthogonalLoop=1;jettySize=auto;html=1;" edge="1" parent="1" source="Ty_dKQS8moNGewAn382e-212" target="Ty_dKQS8moNGewAn382e-211">
          <mxGeometry relative="1" as="geometry" />
        </mxCell>
        <mxCell id="Ty_dKQS8moNGewAn382e-212" value="ประกาศตัวแปร n" style="rectangle" vertex="1" parent="1">
          <mxGeometry x="120" y="80" width="160" height="40" as="geometry" />
        </mxCell>
        <mxCell id="Ty_dKQS8moNGewAn382e-219" value="" style="edgeStyle=orthogonalEdgeStyle;rounded=0;orthogonalLoop=1;jettySize=auto;html=1;" edge="1" parent="1" source="Ty_dKQS8moNGewAn382e-215" target="7">
          <mxGeometry relative="1" as="geometry" />
        </mxCell>
        <mxCell id="Ty_dKQS8moNGewAn382e-215" value="แสดง Enter value&amp;nbsp;&amp;nbsp;" style="shape=parallelogram;perimeter=parallelogramPerimeter;whiteSpace=wrap;html=1;fixedSize=1;" vertex="1" parent="1">
          <mxGeometry x="120" y="640" width="160" height="40" as="geometry" />
        </mxCell>
        <mxCell id="Ty_dKQS8moNGewAn382e-224" value="" style="edgeStyle=orthogonalEdgeStyle;rounded=0;orthogonalLoop=1;jettySize=auto;html=1;" edge="1" parent="1" source="Ty_dKQS8moNGewAn382e-222" target="6">
          <mxGeometry relative="1" as="geometry" />
        </mxCell>
        <mxCell id="Ty_dKQS8moNGewAn382e-222" value="" style="ellipse;whiteSpace=wrap;html=1;aspect=fixed;" vertex="1" parent="1">
          <mxGeometry x="195" y="475" width="10" height="10" as="geometry" />
        </mxCell>
        <mxCell id="Ty_dKQS8moNGewAn382e-238" style="edgeStyle=orthogonalEdgeStyle;rounded=0;orthogonalLoop=1;jettySize=auto;html=1;entryX=0.5;entryY=0;entryDx=0;entryDy=0;" edge="1" parent="1" source="Ty_dKQS8moNGewAn382e-226" target="10">
          <mxGeometry relative="1" as="geometry" />
        </mxCell>
        <mxCell id="Ty_dKQS8moNGewAn382e-226" value="&lt;span style=&quot;text-wrap-mode: nowrap;&quot;&gt;แสดง Index :&lt;/span&gt;" style="shape=parallelogram;perimeter=parallelogramPerimeter;whiteSpace=wrap;html=1;fixedSize=1;" vertex="1" parent="1">
          <mxGeometry x="120" y="960" width="160" height="40" as="geometry" />
        </mxCell>
        <mxCell id="Ty_dKQS8moNGewAn382e-234" style="edgeStyle=orthogonalEdgeStyle;rounded=0;orthogonalLoop=1;jettySize=auto;html=1;entryX=0.5;entryY=0;entryDx=0;entryDy=0;" edge="1" parent="1" source="Ty_dKQS8moNGewAn382e-230" target="11">
          <mxGeometry relative="1" as="geometry" />
        </mxCell>
        <mxCell id="Ty_dKQS8moNGewAn382e-230" value="" style="ellipse;whiteSpace=wrap;html=1;aspect=fixed;" vertex="1" parent="1">
          <mxGeometry x="195" y="1110" width="10" height="10" as="geometry" />
        </mxCell>
        <mxCell id="Ty_dKQS8moNGewAn382e-236" value="&lt;span style=&quot;text-wrap-mode: nowrap;&quot;&gt;แสดงค่า i&lt;/span&gt;" style="shape=parallelogram;perimeter=parallelogramPerimeter;whiteSpace=wrap;html=1;fixedSize=1;" vertex="1" parent="1">
          <mxGeometry x="120" y="1280" width="160" height="40" as="geometry" />
        </mxCell>
        <mxCell id="Ty_dKQS8moNGewAn382e-242" value="" style="edgeStyle=orthogonalEdgeStyle;rounded=0;orthogonalLoop=1;jettySize=auto;html=1;" edge="1" parent="1" source="Ty_dKQS8moNGewAn382e-240" target="Ty_dKQS8moNGewAn382e-241">
          <mxGeometry relative="1" as="geometry" />
        </mxCell>
        <mxCell id="Ty_dKQS8moNGewAn382e-240" value="&lt;span style=&quot;text-wrap-mode: nowrap;&quot;&gt;แสดง Array:&lt;/span&gt;" style="shape=parallelogram;perimeter=parallelogramPerimeter;whiteSpace=wrap;html=1;fixedSize=1;" vertex="1" parent="1">
          <mxGeometry x="120" y="1520" width="160" height="40" as="geometry" />
        </mxCell>
        <mxCell id="Ty_dKQS8moNGewAn382e-252" style="edgeStyle=orthogonalEdgeStyle;rounded=0;orthogonalLoop=1;jettySize=auto;html=1;entryX=0.5;entryY=0;entryDx=0;entryDy=0;" edge="1" parent="1" source="Ty_dKQS8moNGewAn382e-241" target="Ty_dKQS8moNGewAn382e-251">
          <mxGeometry relative="1" as="geometry" />
        </mxCell>
        <mxCell id="Ty_dKQS8moNGewAn382e-241" value="i = 0" style="rectangle" vertex="1" parent="1">
          <mxGeometry x="160" y="1600" width="80" height="40" as="geometry" />
        </mxCell>
        <mxCell id="Ty_dKQS8moNGewAn382e-250" value="" style="edgeStyle=orthogonalEdgeStyle;rounded=0;orthogonalLoop=1;jettySize=auto;html=1;" edge="1" parent="1" source="Ty_dKQS8moNGewAn382e-243" target="Ty_dKQS8moNGewAn382e-244">
          <mxGeometry relative="1" as="geometry" />
        </mxCell>
        <mxCell id="Ty_dKQS8moNGewAn382e-262" style="edgeStyle=orthogonalEdgeStyle;rounded=0;orthogonalLoop=1;jettySize=auto;html=1;entryX=0.5;entryY=0;entryDx=0;entryDy=0;" edge="1" parent="1" source="Ty_dKQS8moNGewAn382e-243" target="17">
          <mxGeometry relative="1" as="geometry">
            <Array as="points">
              <mxPoint x="560" y="1760" />
              <mxPoint x="560" y="2280" />
              <mxPoint x="200" y="2280" />
            </Array>
          </mxGeometry>
        </mxCell>
        <mxCell id="Ty_dKQS8moNGewAn382e-243" value="i &lt; N ?" style="rhombus" vertex="1" parent="1">
          <mxGeometry x="150" y="1720" width="100" height="80" as="geometry" />
        </mxCell>
        <mxCell id="Ty_dKQS8moNGewAn382e-249" value="" style="edgeStyle=orthogonalEdgeStyle;rounded=0;orthogonalLoop=1;jettySize=auto;html=1;" edge="1" parent="1" source="Ty_dKQS8moNGewAn382e-244" target="13">
          <mxGeometry relative="1" as="geometry" />
        </mxCell>
        <mxCell id="Ty_dKQS8moNGewAn382e-244" value="&lt;span style=&quot;text-wrap-mode: nowrap;&quot;&gt;เรียกใช้ isPrime(arr[i])&lt;/span&gt;" style="shape=process;whiteSpace=wrap;html=1;backgroundOutline=1;" vertex="1" parent="1">
          <mxGeometry x="105" y="1840" width="190" height="40" as="geometry" />
        </mxCell>
        <mxCell id="Ty_dKQS8moNGewAn382e-259" style="edgeStyle=orthogonalEdgeStyle;rounded=0;orthogonalLoop=1;jettySize=auto;html=1;entryX=1;entryY=0.5;entryDx=0;entryDy=0;" edge="1" parent="1" source="Ty_dKQS8moNGewAn382e-245" target="Ty_dKQS8moNGewAn382e-257">
          <mxGeometry relative="1" as="geometry">
            <Array as="points">
              <mxPoint x="420" y="2125" />
            </Array>
          </mxGeometry>
        </mxCell>
        <mxCell id="Ty_dKQS8moNGewAn382e-245" value="&lt;span style=&quot;text-wrap-mode: nowrap;&quot;&gt;แสดง #&lt;/span&gt;" style="shape=parallelogram;perimeter=parallelogramPerimeter;whiteSpace=wrap;html=1;fixedSize=1;" vertex="1" parent="1">
          <mxGeometry x="340" y="1940" width="160" height="40" as="geometry" />
        </mxCell>
        <mxCell id="Ty_dKQS8moNGewAn382e-260" style="edgeStyle=orthogonalEdgeStyle;rounded=0;orthogonalLoop=1;jettySize=auto;html=1;entryX=0.5;entryY=0;entryDx=0;entryDy=0;" edge="1" parent="1" source="Ty_dKQS8moNGewAn382e-246" target="Ty_dKQS8moNGewAn382e-257">
          <mxGeometry relative="1" as="geometry" />
        </mxCell>
        <mxCell id="Ty_dKQS8moNGewAn382e-246" value="&lt;span style=&quot;text-wrap-mode: nowrap;&quot;&gt;แสดง arr[i]&lt;/span&gt;" style="shape=parallelogram;perimeter=parallelogramPerimeter;whiteSpace=wrap;html=1;fixedSize=1;" vertex="1" parent="1">
          <mxGeometry x="120" y="2040" width="160" height="40" as="geometry" />
        </mxCell>
        <mxCell id="Ty_dKQS8moNGewAn382e-255" style="edgeStyle=orthogonalEdgeStyle;rounded=0;orthogonalLoop=1;jettySize=auto;html=1;entryX=0;entryY=0.5;entryDx=0;entryDy=0;" edge="1" parent="1" source="Ty_dKQS8moNGewAn382e-247" target="Ty_dKQS8moNGewAn382e-251">
          <mxGeometry relative="1" as="geometry">
            <Array as="points">
              <mxPoint x="200" y="2240" />
              <mxPoint x="80" y="2240" />
              <mxPoint x="80" y="1685" />
            </Array>
          </mxGeometry>
        </mxCell>
        <mxCell id="Ty_dKQS8moNGewAn382e-247" value="i + 1" style="rectangle" vertex="1" parent="1">
          <mxGeometry x="170" y="2160" width="60" height="40" as="geometry" />
        </mxCell>
        <mxCell id="Ty_dKQS8moNGewAn382e-253" style="edgeStyle=orthogonalEdgeStyle;rounded=0;orthogonalLoop=1;jettySize=auto;html=1;entryX=0.5;entryY=0;entryDx=0;entryDy=0;" edge="1" parent="1" source="Ty_dKQS8moNGewAn382e-251" target="Ty_dKQS8moNGewAn382e-243">
          <mxGeometry relative="1" as="geometry" />
        </mxCell>
        <mxCell id="Ty_dKQS8moNGewAn382e-251" value="" style="ellipse;whiteSpace=wrap;html=1;aspect=fixed;" vertex="1" parent="1">
          <mxGeometry x="195" y="1680" width="10" height="10" as="geometry" />
        </mxCell>
        <mxCell id="Ty_dKQS8moNGewAn382e-261" value="" style="edgeStyle=orthogonalEdgeStyle;rounded=0;orthogonalLoop=1;jettySize=auto;html=1;" edge="1" parent="1" source="Ty_dKQS8moNGewAn382e-257" target="Ty_dKQS8moNGewAn382e-247">
          <mxGeometry relative="1" as="geometry" />
        </mxCell>
        <mxCell id="Ty_dKQS8moNGewAn382e-257" value="" style="ellipse;whiteSpace=wrap;html=1;aspect=fixed;" vertex="1" parent="1">
          <mxGeometry x="195" y="2120" width="10" height="10" as="geometry" />
        </mxCell>
        <mxCell id="Ty_dKQS8moNGewAn382e-268" value="" style="edgeStyle=orthogonalEdgeStyle;rounded=0;orthogonalLoop=1;jettySize=auto;html=1;" edge="1" parent="1" source="Ty_dKQS8moNGewAn382e-266" target="24">
          <mxGeometry relative="1" as="geometry" />
        </mxCell>
        <mxCell id="Ty_dKQS8moNGewAn382e-266" value="" style="ellipse;whiteSpace=wrap;html=1;aspect=fixed;" vertex="1" parent="1">
          <mxGeometry x="715" y="270" width="10" height="10" as="geometry" />
        </mxCell>
        <mxCell id="Ty_dKQS8moNGewAn382e-300" value="" style="edgeStyle=orthogonalEdgeStyle;rounded=0;orthogonalLoop=1;jettySize=auto;html=1;" edge="1" parent="1" source="Ty_dKQS8moNGewAn382e-270" target="Ty_dKQS8moNGewAn382e-299">
          <mxGeometry relative="1" as="geometry" />
        </mxCell>
        <mxCell id="Ty_dKQS8moNGewAn382e-270" value="return 1" style="parallelogram" vertex="1" parent="1">
          <mxGeometry x="880" y="340" width="100" height="40" as="geometry" />
        </mxCell>
        <mxCell id="Ty_dKQS8moNGewAn382e-301" style="edgeStyle=orthogonalEdgeStyle;rounded=0;orthogonalLoop=1;jettySize=auto;html=1;entryX=0.5;entryY=0;entryDx=0;entryDy=0;" edge="1" parent="1" source="Ty_dKQS8moNGewAn382e-272" target="Ty_dKQS8moNGewAn382e-299">
          <mxGeometry relative="1" as="geometry" />
        </mxCell>
        <mxCell id="Ty_dKQS8moNGewAn382e-272" value="return 0" style="parallelogram" vertex="1" parent="1">
          <mxGeometry x="880" y="100" width="100" height="40" as="geometry" />
        </mxCell>
        <mxCell id="Ty_dKQS8moNGewAn382e-276" value="TRUE" style="text;html=1;align=center;verticalAlign=middle;whiteSpace=wrap;rounded=0;" vertex="1" parent="1">
          <mxGeometry x="200" y="600" width="60" height="30" as="geometry" />
        </mxCell>
        <mxCell id="Ty_dKQS8moNGewAn382e-277" value="FALSE" style="text;html=1;align=center;verticalAlign=middle;whiteSpace=wrap;rounded=0;" vertex="1" parent="1">
          <mxGeometry x="250" y="535" width="60" height="30" as="geometry" />
        </mxCell>
        <mxCell id="Ty_dKQS8moNGewAn382e-280" value="TRUE" style="text;html=1;align=center;verticalAlign=middle;whiteSpace=wrap;rounded=0;" vertex="1" parent="1">
          <mxGeometry x="200" y="1240" width="60" height="30" as="geometry" />
        </mxCell>
        <mxCell id="Ty_dKQS8moNGewAn382e-281" value="FALSE" style="text;html=1;align=center;verticalAlign=middle;whiteSpace=wrap;rounded=0;" vertex="1" parent="1">
          <mxGeometry x="250" y="1170" width="60" height="30" as="geometry" />
        </mxCell>
        <mxCell id="Ty_dKQS8moNGewAn382e-283" value="TRUE" style="text;html=1;align=center;verticalAlign=middle;whiteSpace=wrap;rounded=0;" vertex="1" parent="1">
          <mxGeometry x="200" y="1800" width="60" height="30" as="geometry" />
        </mxCell>
        <mxCell id="Ty_dKQS8moNGewAn382e-284" value="FALSE" style="text;html=1;align=center;verticalAlign=middle;whiteSpace=wrap;rounded=0;" vertex="1" parent="1">
          <mxGeometry x="250" y="1730" width="60" height="30" as="geometry" />
        </mxCell>
        <mxCell id="Ty_dKQS8moNGewAn382e-285" value="TRUE" style="text;html=1;align=center;verticalAlign=middle;whiteSpace=wrap;rounded=0;" vertex="1" parent="1">
          <mxGeometry x="200" y="2000" width="60" height="30" as="geometry" />
        </mxCell>
        <mxCell id="Ty_dKQS8moNGewAn382e-286" value="FALSE" style="text;html=1;align=center;verticalAlign=middle;whiteSpace=wrap;rounded=0;" vertex="1" parent="1">
          <mxGeometry x="250" y="1930" width="60" height="30" as="geometry" />
        </mxCell>
        <mxCell id="Ty_dKQS8moNGewAn382e-287" value="TRUE" style="text;html=1;align=center;verticalAlign=middle;whiteSpace=wrap;rounded=0;" vertex="1" parent="1">
          <mxGeometry x="725" y="160" width="60" height="30" as="geometry" />
        </mxCell>
        <mxCell id="Ty_dKQS8moNGewAn382e-288" value="FALSE" style="text;html=1;align=center;verticalAlign=middle;whiteSpace=wrap;rounded=0;" vertex="1" parent="1">
          <mxGeometry x="775" y="90" width="60" height="30" as="geometry" />
        </mxCell>
        <mxCell id="Ty_dKQS8moNGewAn382e-289" value="TRUE" style="text;html=1;align=center;verticalAlign=middle;whiteSpace=wrap;rounded=0;" vertex="1" parent="1">
          <mxGeometry x="725" y="400" width="60" height="30" as="geometry" />
        </mxCell>
        <mxCell id="Ty_dKQS8moNGewAn382e-290" value="FALSE" style="text;html=1;align=center;verticalAlign=middle;whiteSpace=wrap;rounded=0;" vertex="1" parent="1">
          <mxGeometry x="775" y="330" width="60" height="30" as="geometry" />
        </mxCell>
        <mxCell id="Ty_dKQS8moNGewAn382e-294" style="edgeStyle=orthogonalEdgeStyle;rounded=0;orthogonalLoop=1;jettySize=auto;html=1;" edge="1" parent="1" source="Ty_dKQS8moNGewAn382e-291" target="27">
          <mxGeometry relative="1" as="geometry" />
        </mxCell>
        <mxCell id="Ty_dKQS8moNGewAn382e-291" value="" style="ellipse;whiteSpace=wrap;html=1;aspect=fixed;" vertex="1" parent="1">
          <mxGeometry x="715" y="630" width="10" height="10" as="geometry" />
        </mxCell>
        <mxCell id="Ty_dKQS8moNGewAn382e-297" value="TRUE" style="text;html=1;align=center;verticalAlign=middle;whiteSpace=wrap;rounded=0;" vertex="1" parent="1">
          <mxGeometry x="717" y="520" width="60" height="30" as="geometry" />
        </mxCell>
        <mxCell id="Ty_dKQS8moNGewAn382e-298" value="FALSE" style="text;html=1;align=center;verticalAlign=middle;whiteSpace=wrap;rounded=0;" vertex="1" parent="1">
          <mxGeometry x="767" y="450" width="60" height="30" as="geometry" />
        </mxCell>
        <mxCell id="Ty_dKQS8moNGewAn382e-302" style="edgeStyle=orthogonalEdgeStyle;rounded=0;orthogonalLoop=1;jettySize=auto;html=1;entryX=0.5;entryY=0;entryDx=0;entryDy=0;" edge="1" parent="1" source="Ty_dKQS8moNGewAn382e-299" target="29">
          <mxGeometry relative="1" as="geometry">
            <mxPoint x="1020" y="690" as="targetPoint" />
            <Array as="points">
              <mxPoint x="1075" y="800" />
              <mxPoint x="720" y="800" />
            </Array>
          </mxGeometry>
        </mxCell>
        <mxCell id="Ty_dKQS8moNGewAn382e-299" value="" style="ellipse;whiteSpace=wrap;html=1;aspect=fixed;" vertex="1" parent="1">
          <mxGeometry x="1070" y="355" width="10" height="10" as="geometry" />
        </mxCell>
      </root>
    </mxGraphModel>
  </diagram>
</mxfile>
